<svg xmlns="http://www.w3.org/2000/svg" viewBox="0 0 64 64">
  <defs>
    <linearGradient id="bg" x1="12%" y1="8%" x2="88%" y2="92%">
      <stop offset="0%" stop-color="#0a66c2" />
      <stop offset="100%" stop-color="#004182" />
    </linearGradient>
  </defs>
  <rect width="64" height="64" rx="16" fill="url(#bg)" />
  <path
    d="M39.3 18.5c-3.2-1.8-7.1-2.3-10.7-1.4c-5.6 1.4-9.4 6-9.4 11.3c0 4.6 2.4 7.7 8 10.4l4.1 2c3.4 1.6 4.7 2.8 4.7 4.9c0 2.5-2.1 4.3-5.1 4.3c-3.1 0-5.7-1.3-8.2-4.2l-4.8 4.8c3.4 4.2 8 6.2 13.4 6.2c7.6 0 12.9-4.7 12.9-11.4c0-4.8-2.4-7.8-8.5-10.7l-3.8-1.8c-3.1-1.5-4.4-2.8-4.4-4.8c0-2.3 1.9-4.1 4.6-4.1c2.5 0 4.4 0.8 6.4 2.7l4.8-4.2Z"
    fill="#ffffff"
  />
</svg>
